<svg width="24" height="24" viewBox="0 0 24 24" fill="none" xmlns="http://www.w3.org/2000/svg">
<path d="M8 3H7C6.46957 3 5.96086 3.21071 5.58579 3.58579C5.21071 3.96086 5 4.46957 5 5V10C5 10.5304 4.78929 11.0391 4.41421 11.4142C4.03914 11.7893 3.53043 12 3 12C3.53043 12 4.03914 12.2107 4.41421 12.5858C4.78929 12.9609 5 13.4696 5 14V19C5 20.1 5.9 21 7 21H8" stroke="#EABC17" stroke-width="2" stroke-linecap="round" stroke-linejoin="round"/>
<path d="M18 21H19C19.5304 21 20.0391 20.7893 20.4142 20.4142C20.7893 20.0391 21 19.5304 21 19V14C21 12.9 21.9 12 23 12C22.4696 12 21.9609 11.7893 21.5858 11.4142C21.2107 11.0391 21 10.5304 21 10V5C21 4.46957 20.7893 3.96086 20.4142 3.58579C20.0391 3.21071 19.5304 3 19 3H18" stroke="#EABC17" stroke-width="2" stroke-linecap="round" stroke-linejoin="round"/>
<path d="M13 9.66669C15.8995 9.66669 18.25 8.88319 18.25 7.91669C18.25 6.95019 15.8995 6.16669 13 6.16669C10.1005 6.16669 7.75 6.95019 7.75 7.91669C7.75 8.88319 10.1005 9.66669 13 9.66669Z" stroke="#EABC17" stroke-width="1.16667" stroke-linecap="round" stroke-linejoin="round"/>
<path d="M7.75 7.91669V16.0834C7.74675 16.3639 7.94588 16.6406 8.33061 16.8901C8.71534 17.1396 9.27438 17.3546 9.96062 17.517C10.6469 17.6794 11.4402 17.7845 12.2737 17.8233C13.1072 17.8621 13.9565 17.8335 14.75 17.74" stroke="#EABC17" stroke-width="1.16667" stroke-linecap="round" stroke-linejoin="round"/>
<path d="M18.25 7.91669V9.66669" stroke="#EABC17" stroke-width="1.16667" stroke-linecap="round" stroke-linejoin="round"/>
<path d="M18.25 12L16.5 14.9167H18.8333L17.0833 17.8333" stroke="#EABC17" stroke-width="1.16667" stroke-linecap="round" stroke-linejoin="round"/>
<path d="M7.75 12C7.75084 12.2727 7.9429 12.5416 8.31085 12.7852C8.6788 13.0288 9.21245 13.2403 9.86923 13.403C10.526 13.5656 11.2877 13.6748 12.0936 13.7219C12.8995 13.769 13.7273 13.7527 14.5108 13.6742" stroke="#EABC17" stroke-width="1.16667" stroke-linecap="round" stroke-linejoin="round"/>
</svg>
